<svg xmlns:xlink="http://www.w3.org/1999/xlink" xmlns="http://www.w3.org/2000/svg" class="pin-svg home" version="1.1" id="pin_home" x="0px" y="0px" viewBox="-3 0 38 64" width="100"  height="100" ><defs><filter id="shadow" x="-20%" y="-20%" width="140%" height="140%"><feGaussianBlur in="SourceAlpha" stdDeviation="1.5"></feGaussianBlur><feOffset dx="0.5" dy="3" result="offsetblur"></feOffset><feFlood flood-color="black" flood-opacity="0.8" result="color"></feFlood><feComposite in2="offsetblur" operator="in" result="shadow"></feComposite><feComposite in2="shadow" operator="over" in="SourceGraphic"></feComposite></filter></defs><path class="pin-bg" d="M32.2,16.1C32.2,7.2,25,0,16.1,0S0,7.2,0,16.1c0,6.5,3.9,12.1,9.4,14.6L12,43.1l4,18.8l4-18.8l2.6-12.4  C28.3,28.2,32.2,22.6,32.2,16.1z" filter="url(#shadow)" fill="#F3C214"></path><path class="pin-logo" d="M10.1,23.1h3v-6h6v6h3v-9l-6-4.5l-6,4.5V23.1z M8.1,25.1v-12l8-6l8,6v12h-7v-6h-2v6H8.1z" fill="#FFFDFC"></path></svg>