<?xml version="1.0" encoding="utf-8"?>
<!-- Generator: Adobe Illustrator 28.1.0, SVG Export Plug-In . SVG Version: 6.00 Build 0)  -->
<svg version="1.1" id="레이어_1" xmlns="http://www.w3.org/2000/svg" xmlns:xlink="http://www.w3.org/1999/xlink" x="0px"
	 y="0px" viewBox="0 0 1525.8 387.8" style="enable-background:new 0 0 1525.8 387.8;" xml:space="preserve">
<style type="text/css">
	.st0{fill:#2D2113;}
</style>
<g>
	<polygon class="st0" points="0,205.3 68.9,205.3 68.9,384.7 127.6,384.7 127.6,205.3 196.3,205.3 196.3,157.1 0,157.1 	"/>
	<path class="st0" d="M391,274.6c7.1-11.3,10.6-24.8,10.6-40.6c0-15.7-3.5-29.4-10.5-41c-7-11.6-16.8-20.5-29.4-26.6
		c-12.6-6.2-27.4-9.3-44.4-9.3h-96.8v227.6h59.7v-75.9h23.4l40.3,75.9h65.2l-46.5-85.4C374.8,293.6,384.3,285.3,391,274.6z
		 M280.3,205h23.4c7.6,0,14.1,1,19.3,3.1c5.2,2.1,9.2,5.3,12,9.5c2.8,4.2,4.2,9.7,4.2,16.3c0,6.5-1.4,11.8-4.2,16
		c-2.8,4.1-6.7,7.2-11.9,9.1c-5.1,1.9-11.6,2.9-19.5,2.9h-23.4V205z"/>
	<rect x="428.8" y="157.1" class="st0" width="59.7" height="227.6"/>
	<path class="st0" d="M689.9,195.1c-7-12.2-16.8-21.5-29.6-28.1c-12.7-6.6-27.5-9.9-44.3-9.9h-96.8v227.6H579v-68.4H614
		c17.2,0,32.3-3.2,45.3-9.7c13-6.5,23.1-15.7,30.3-27.6c7.2-11.9,10.8-25.9,10.8-41.9C700.3,221.3,696.9,207.3,689.9,195.1z
		 M633.8,254.4c-2.8,4.8-6.8,8.5-12.2,11.2c-5.3,2.6-11.7,3.9-19.2,3.9H579V205h23.4c7.5,0,14,1.3,19.3,3.8c5.3,2.5,9.3,6.2,12.1,11
		c2.8,4.8,4.2,10.6,4.2,17.3C637.9,243.8,636.5,249.6,633.8,254.4z"/>
</g>
<path class="st0" d="M787,313.3c-0.2,9.1-2.1,16-5.8,20.7c-3.7,4.7-9.1,7-16.3,7c-4.6,0-8.5-1-11.8-3c-3.3-2-5.8-5-7.7-8.9
	c-1.9-3.9-2.9-8.8-3.1-14.5h-60.1c0,16.5,3.5,30.2,10.5,41.2s16.4,19.1,28.2,24.3c11.8,5.2,25.2,7.8,40.1,7.8
	c16.6,0,31.3-3.1,44.3-9.4c12.9-6.2,23-15,30.3-26.3s10.8-24.2,10.8-38.9V157.1H787V313.3z"/>
<path class="st0" d="M944.2,157.1l-75.6,227.6h64.6l13.7-44.8h76l13.6,44.8h64.6l-75.6-227.6H944.2z M960.6,294.8l23.3-76.6h1.9
	l23.3,76.6H960.6z"/>
<polygon class="st0" points="1247.9,157.1 1200.2,319.1 1198.2,319.1 1150.6,157.1 1083,157.1 1158.6,384.7 1239.9,384.7 
	1315.5,157.1 "/>
<path class="st0" d="M1461.2,384.7h64.6l-75.6-227.6h-81.3l-75.6,227.6h64.6l13.7-44.8h76L1461.2,384.7z M1385.3,294.8l23.3-76.6
	h1.9l23.3,76.6H1385.3z"/>
<path class="st0" d="M1124.1,116.3L1124.1,116.3c13.2,0,25.4-7.6,30.7-19.7c7.6-17,24.6-28.9,44.4-28.9c26.7,0,48.5,21.8,48.5,48.5
	h67.7c0-64.2-52.1-116.3-116.2-116.3c-47.2,0-87.8,28.1-106,68.5C1083.1,90.9,1099.6,116.3,1124.1,116.3z"/>
</svg>
