<svg xmlns:xlink="http://www.w3.org/1999/xlink" xmlns="http://www.w3.org/2000/svg" class="pin-svg meal" version="1.1" id="pin_meal" x="0px" y="0px" viewBox="-3 0 38 64" width="100"  height="100" ><defs><filter id="shadow" x="-20%" y="-20%" width="140%" height="140%"><feGaussianBlur in="SourceAlpha" stdDeviation="1.5"></feGaussianBlur><feOffset dx="0.5" dy="3" result="offsetblur"></feOffset><feFlood flood-color="black" flood-opacity="0.7" result="color"></feFlood><feComposite in2="offsetblur" operator="in" result="shadow"></feComposite><feComposite in2="shadow" operator="over" in="SourceGraphic"></feComposite></filter></defs><path class="pin-bg" d="M32.2,16.1C32.2,7.2,25,0,16.1,0S0,7.2,0,16.1c0,6.5,3.9,12.1,9.4,14.6L12,43.1l4,18.8l4-18.8l2.6-12.4  C28.3,28.2,32.2,22.6,32.2,16.1z" filter="url(#shadow)" fill="#DA685D"></path><path class="pin-logo" d="M10.6,26.1V17c-0.8-0.2-1.6-0.7-2.1-1.4S7.6,14,7.6,13.1v-7h2v7h1v-7h2v7h1v-7h2v7c0,0.9-0.3,1.8-0.9,2.4  c-0.6,0.7-1.3,1.2-2.1,1.4V26h-2V26.1z M20.6,26.1v-8h-3v-7c0-1.4,0.5-2.6,1.5-3.5c1-1,2.2-1.5,3.5-1.5v20H20.6z" fill="#FFFDFC"></path></svg>